<svg width="68" height="68" viewBox="0 0 68 68" fill="none" xmlns="http://www.w3.org/2000/svg">
<path d="M46.9081 38.6003L43.2776 42.1459L47.2442 43.2162L49.1939 42.7479L48.7233 38.6003H46.9081Z" fill="#4D2465"/>
<path d="M51.9509 17.1255L46.438 18.1289L46.8414 21.4738C47.0431 21.4069 47.312 21.34 47.5809 21.34C47.9843 21.34 48.3877 21.4069 48.7238 21.6076L51.9509 17.1255Z" fill="#4D2465"/>
<path d="M47.5805 26.8916C47.5132 26.8916 47.5132 26.8916 47.5805 26.8916L47.7821 28.9654H48.7234L48.0511 26.8247C47.9166 26.8247 47.7149 26.8916 47.5805 26.8916Z" fill="#4D2465"/>
<path d="M49.7319 46.8263L49.3958 44.0835L47.715 43.6152L39.7817 45.5552L41.2608 50.8401L49.7319 46.8263Z" fill="#4D2465"/>
<path d="M48.1853 43.4837L49.3282 43.8181L49.261 43.283L48.1853 43.4837Z" fill="#4D2465"/>
<path d="M41.5295 18.7989L45.4289 18.063L45.0928 16.792L41.5295 18.7989Z" fill="#4D2465"/>
<path d="M45.7654 18.2615L46.5049 20.7367L46.1688 18.1946L45.7654 18.2615Z" fill="#4D2465"/>
<path d="M45.2947 16.7254L45.6981 18.0633L46.1687 17.9295L45.967 16.324L45.2947 16.7254Z" fill="#4D2465"/>
<path d="M33.0589 54.7215L40.9922 50.9084L39.5803 45.6904L31.5798 53.3835L33.0589 54.7215Z" fill="#4D2465"/>
<path d="M33.7307 23.4153L34.6719 26.8939L44.8238 24.4856C44.8238 24.4856 44.8238 24.4856 44.8238 24.4187L33.7307 23.4153Z" fill="#4D2465"/>
<path d="M35.9495 31.6416L37.563 37.5285V32.9126C37.563 32.1099 37.2268 31.5747 36.4201 31.5747C36.2856 31.5747 36.0839 31.5747 35.9495 31.6416Z" fill="#4D2465"/>
<path d="M34.7393 27.1593L35.546 29.9689C36.4873 29.1661 37.4957 28.7648 38.7731 28.7648C40.9245 28.7648 42.1347 29.7682 42.4036 31.4406L45.6307 26.0889C45.2273 25.7544 44.9584 25.2861 44.8239 24.751L34.7393 27.1593Z" fill="#4D2465"/>
<path d="M33.3952 23.3455L24.5208 28.3627L24.588 28.9648H25.9998L34.4037 26.9579L33.4625 23.3455H33.3952Z" fill="#4D2465"/>
<path d="M39.4454 45.1547L38.3024 41.0071L37.1595 40.6726L33.5291 46.5595L39.4454 45.1547Z" fill="#4D2465"/>
<path d="M37.7647 39.1347L35.7478 31.7092C35.2099 31.9768 35.0083 32.5789 35.0083 33.181V38.5996H30.7727L37.0252 40.3389L37.7647 39.1347Z" fill="#4D2465"/>
<path d="M40.8576 19.2L34.1345 22.9462L44.8242 23.9496C44.8242 23.5482 44.9587 23.1469 45.1604 22.7455L41.1265 19.0662L40.8576 19.2Z" fill="#4D2465"/>
<path d="M32.7896 54.7889L31.3777 53.5847L27.6128 57.264L32.7896 54.7889Z" fill="#4D2465"/>
<path d="M32.8568 47.229L26.4026 48.8345L29.9658 51.9787L32.8568 47.229Z" fill="#4D2465"/>
<path d="M39.1769 45.6904L33.1934 47.1622L30.168 52.1794L31.3781 53.2497L39.1769 45.6904Z" fill="#4D2465"/>
<path d="M33.1928 46.627L36.8905 40.6063L27.4109 37.9304V38.5994H25.2595L25.9991 48.3663L33.1928 46.627Z" fill="#4D2465"/>
<path d="M32.9913 54.99L27.6128 57.5321L33.9997 55.9265L32.9913 54.99Z" fill="#4D2465"/>
<path d="M42.6725 56.9964L41.933 54.1199L34.5376 55.993L37.8319 58.9364L42.6725 56.9964Z" fill="#4D2465"/>
<path d="M33.5966 22.8793H33.7311L40.118 19.3337L32.9243 20.6048L33.5966 22.8793Z" fill="#4D2465"/>
<path d="M41.8656 53.9176L41.0588 51.1748L33.26 54.8541L34.3357 55.7907L41.8656 53.9176Z" fill="#4D2465"/>
<path d="M41.7314 18.999L45.4291 22.3439C45.6981 22.0094 46.0342 21.7418 46.4376 21.5411L45.4291 18.2632L41.7314 18.999Z" fill="#4D2465"/>
<path d="M24.3188 28.9673V28.499L23.4448 28.9673H24.3188Z" fill="#4D2465"/>
<path d="M49.7317 47.0957L41.3279 51.0426L42.0674 53.8523L50.3368 51.7116L49.7317 47.0957Z" fill="#4D2465"/>
<path d="M19.8814 32.4442V32.7117L20.7554 30.5042L19.6797 31.1062C19.8141 31.5076 19.8814 31.909 19.8814 32.4442Z" fill="#4D2465"/>
<path d="M24.9902 22.0767L33.3269 22.8795L32.7218 20.6719L24.9902 22.0767Z" fill="#4D2465"/>
<path d="M21.2261 29.904L24.2515 28.2316L23.9153 23.0806L21.2261 29.904Z" fill="#4D2465"/>
<path d="M19.8816 33.381V35.5216L22.5036 36.2575V30.0361L21.0245 30.3706L19.8816 33.381Z" fill="#4D2465"/>
<path d="M22.5032 29.501L21.6292 29.9693L22.5032 29.7686V29.501Z" fill="#4D2465"/>
<path d="M50.6059 53.9856L43.0088 57.0628L45.2946 65.4918C47.5133 64.689 49.6647 63.6856 51.6816 62.4146L50.6059 53.9856Z" fill="#4D2465"/>
<path d="M3.47692 28.9644L1.79614 27.4258L3.0063 28.9644H3.47692Z" fill="#4D2465"/>
<path d="M5.22501 31.9768C4.88886 32.3113 4.75439 32.7127 4.75439 33.1809V33.9837L6.43517 33.5823L5.22501 31.9768Z" fill="#4D2465"/>
<path d="M29.0923 8.29559H29.1595L22.7053 2.40869L23.1087 8.028L29.0923 8.29559Z" fill="#4D2465"/>
<path d="M4.95594 30.2368L4.14917 29.501L4.28363 30.9727L4.48532 30.7051C4.61979 30.5713 4.82148 30.3706 4.95594 30.2368Z" fill="#4D2465"/>
<path d="M11.074 29.7021C11.4101 30.0366 11.7463 30.5049 11.8807 31.0401C13.0909 29.5683 14.3683 28.8325 16.1163 28.8325C17.7971 28.8325 18.8728 29.5014 19.4106 30.5049L20.688 30.1704L20.8225 30.1035L23.8479 22.4773V22.4104L23.1083 22.3435L13.2926 24.1497L11.074 29.7021Z" fill="#4D2465"/>
<path d="M13.4949 23.8822L22.2349 22.2766L14.4361 21.5408L13.4949 23.8822Z" fill="#4D2465"/>
<path d="M53.4965 45.2896L50.0005 46.962L50.5383 51.6447L52.8914 51.0427L53.4965 45.2896Z" fill="#4D2465"/>
<path d="M52.8243 51.3105L50.6057 51.9126L50.8074 53.6519L52.6899 52.9161L52.8243 51.3105Z" fill="#4D2465"/>
<path d="M2.67031 28.9664L0.720617 26.4912C0.518924 27.294 0.384462 28.0967 0.25 28.9664H2.67031Z" fill="#4D2465"/>
<path d="M0.922363 42.0792C1.46021 44.153 2.19975 46.1599 3.07375 48.0999L6.90592 38.9351L0.922363 42.0792Z" fill="#4D2465"/>
<path d="M52.6228 53.1826L50.8748 53.9185L51.7488 61.344L52.6228 53.1826Z" fill="#4D2465"/>
<path d="M7.37655 32.9126C7.37655 32.6451 7.30932 32.4444 7.24209 32.2437V32.1768C7.10762 31.8423 6.77147 31.5747 6.23362 31.5747C5.89747 31.5747 5.62854 31.6416 5.35962 31.8423L6.70424 33.5147L7.37655 33.3809V32.9126Z" fill="#4D2465"/>
<path d="M20.1504 7.89323L22.8396 8.02702L22.4362 2.47461L20.1504 7.89323Z" fill="#4D2465"/>
<path d="M7.37613 33.5825L6.90552 33.7163L7.37613 34.3184V33.5825Z" fill="#4D2465"/>
<path d="M10.8728 29.5019L13.0915 24.217L1.05713 26.4246L3.94806 28.9667L4.08252 29.1674L5.15822 30.1039C6.03222 29.3012 7.10791 28.8329 8.587 28.8329C9.52823 28.766 10.2678 29.0336 10.8728 29.5019Z" fill="#4D2465"/>
<path d="M47.513 28.9652L47.2441 26.8245C46.7062 26.7576 46.2356 26.5569 45.8322 26.2893L42.4707 31.8417C42.4707 32.0424 42.5379 32.1762 42.5379 32.3769V38.5314H38.3696L38.0334 39.0665L38.5041 40.6721L43.0085 41.9431L46.5718 38.4645H45.1599V28.9652H47.513Z" fill="#4D2465"/>
<path d="M50.068 38.5995H48.925L49.4629 42.6802L52.6228 41.9443L50.5386 35.054L50.068 35.5222V38.5995Z" fill="#4D2465"/>
<path d="M27.4111 33.1802V37.6623L30.0331 38.3982V32.9126C30.0331 32.1099 29.697 31.5747 28.8902 31.5747C27.8817 31.5747 27.4111 32.3775 27.4111 33.1802Z" fill="#4D2465"/>
<path d="M50.0686 35.1883L50.472 34.7869L50.0686 33.3821V35.1883Z" fill="#4D2465"/>
<path d="M34.5377 31.0411C34.8066 30.7066 35.0756 30.4391 35.3445 30.1715L34.5377 27.228L26.8062 29.0342L27.0078 30.9742C28.1508 29.6363 29.2937 28.7666 31.3106 28.7666C32.9242 28.7666 34.0671 29.6363 34.5377 31.0411Z" fill="#4D2465"/>
<path d="M43.0764 42.3469L40.3872 44.889L46.7069 43.3504L43.0764 42.3469Z" fill="#4D2465"/>
<path d="M37.2947 40.4043L38.2359 40.6719L37.8998 39.4678L37.2947 40.4043Z" fill="#4D2465"/>
<path d="M39.6472 45.0885L39.9162 45.0216L42.7398 42.2119L38.5715 41.0747L39.6472 45.0885Z" fill="#4D2465"/>
<path d="M20.1498 49.8382L25.5955 48.5002L16.9227 40.8071L15.5781 44.2857L20.1498 49.8382Z" fill="#4D2465"/>
<path d="M12.6201 32.1099L14.3681 31.7085C14.2337 31.6416 14.032 31.5747 13.763 31.5747C13.2252 31.5747 12.889 31.7754 12.6201 32.1099Z" fill="#4D2465"/>
<path d="M12.2839 33.1792V33.3799L14.9059 34.1158V32.9117C14.9059 32.5103 14.7715 32.1089 14.5698 31.9082L12.4184 32.4434C12.3512 32.6441 12.2839 32.9117 12.2839 33.1792Z" fill="#4D2465"/>
<path d="M25.0583 38.5992H22.5036V36.5254L19.8816 35.7896V38.5992H17.7974L17.0579 40.5392L25.7307 48.2323L25.0583 38.5992Z" fill="#4D2465"/>
<path d="M29.3608 8.56274H29.1592L23.3101 11.1717L24.1168 21.9421L29.3608 8.56274Z" fill="#4D2465"/>
<path d="M12.2839 35.7891L14.9059 34.3843L12.2839 33.6484V35.7891Z" fill="#4D2465"/>
<path d="M28.6216 8.49586L23.1086 8.29517L23.3103 10.9041L28.6216 8.49586Z" fill="#4D2465"/>
<path d="M12.2839 36.3924L16.8556 40.4062L17.5279 38.6H14.9059V34.6531L12.2839 36.0579V36.3924Z" fill="#4D2465"/>
<path d="M24.1169 22.5437L24.5203 28.0292L32.9242 23.3465L24.1169 22.4768V22.5437Z" fill="#4D2465"/>
<path d="M7.1078 38.5326L7.44396 37.7968V34.7195L6.70442 33.783L4.75472 34.1843V38.5326H0.250244C0.384706 39.603 0.5864 40.6733 0.855324 41.7436L7.1078 38.5326Z" fill="#4D2465"/>
<path d="M0.787842 26.2243L13.2256 23.9498L14.234 21.5415L2.73754 20.4043C1.86354 22.2774 1.25846 24.2174 0.787842 26.2243Z" fill="#4D2465"/>
<path d="M14.6372 21.0728L23.8478 21.9425L23.0411 11.239L17.7971 13.6473L14.6372 21.0728Z" fill="#4D2465"/>
<path d="M12.3514 51.7121L15.3095 44.2865L10.6034 38.6003H7.51076L7.30906 38.6672L3.40967 48.0328L12.2842 51.7121H12.3514Z" fill="#4D2465"/>
<path d="M14.3685 21.0725L17.4611 13.7808L3.47705 20.0021L14.3685 21.0725Z" fill="#4D2465"/>
<path d="M25.1929 58.3994L14.167 61.2091C14.8393 61.6773 15.5788 62.1456 16.3184 62.6139L25.1929 58.3994Z" fill="#4D2465"/>
<path d="M6.099 53.2499L11.4775 51.912L3.34253 48.5671C4.1493 50.1727 5.09053 51.7782 6.099 53.2499Z" fill="#4D2465"/>
<path d="M13.8302 61.075L25.999 57.9977L12.4183 52.3784L10.1997 57.9977C11.3426 59.0681 12.5528 60.0715 13.8302 61.075Z" fill="#4D2465"/>
<path d="M41.1259 2.94294L44.0841 1.60501C42.8739 1.20363 41.6638 0.936043 40.4536 0.668457L41.1259 2.94294Z" fill="#4D2465"/>
<path d="M26.0666 58.4023L26.201 58.2017L16.5198 62.7506C17.5955 63.3527 18.6712 63.9548 19.8141 64.423L26.0666 58.4023Z" fill="#4D2465"/>
<path d="M44.4207 1.6731L45.2947 8.96482L57.3962 9.49999C53.7658 6.02137 49.3285 3.27861 44.4207 1.6731Z" fill="#4D2465"/>
<path d="M29.9662 8.29605L42.6729 8.89812L40.9921 3.27881L29.8318 8.22915L29.9662 8.29605Z" fill="#4D2465"/>
<path d="M29.0922 7.5588L27.2097 0.668457C25.7306 0.936043 24.2515 1.33742 22.7725 1.8726L29.0922 7.5588Z" fill="#4D2465"/>
<path d="M19.881 7.89349L22.3685 2.00659C18.7381 3.27763 15.4438 5.21763 12.4856 7.559L19.881 7.89349Z" fill="#4D2465"/>
<path d="M27.478 0.602311L29.495 7.89403L29.6294 8.02783L32.7893 0.0671387C30.9068 0.0671387 29.1588 0.267828 27.478 0.602311Z" fill="#4D2465"/>
<path d="M23.0407 10.9703L22.839 8.22754L20.0825 8.16064L17.9312 13.3117L23.0407 10.9703Z" fill="#4D2465"/>
<path d="M30.0331 62.3479L27.075 63.552L27.3439 66.83C29.428 67.2314 31.6467 67.432 33.8653 67.432C33.9997 67.432 34.1342 67.432 34.3359 67.432L30.0331 62.3479Z" fill="#4D2465"/>
<path d="M56.9924 15.9865L62.0348 15.05C60.7574 13.11 59.2783 11.3707 57.6647 9.76514L56.9924 15.9865Z" fill="#4D2465"/>
<path d="M67.3466 38.8665L66.876 39.0002L53.9004 45.1547L64.5229 48.1651C65.8675 45.2216 66.876 42.1444 67.3466 38.8665Z" fill="#4D2465"/>
<path d="M29.8982 7.96069L40.9241 3.01034L40.1845 0.602069C38.1004 0.20069 36.0162 0 33.8648 0C33.5959 0 33.327 0 33.058 0L29.8982 7.96069Z" fill="#4D2465"/>
<path d="M66.9431 26.6248L59.9511 25.9558L55.7156 30.0365L67.4138 38.3317C67.6154 36.8599 67.7499 35.3213 67.7499 33.7827C67.7499 31.3075 67.481 28.8993 66.9431 26.6248Z" fill="#4D2465"/>
<path d="M3.00629 19.9349L17.5954 13.446L19.814 8.16115L12.1497 7.75977C8.18307 11.0377 4.95599 15.1853 2.87183 19.9349H3.00629Z" fill="#4D2465"/>
<path d="M25.5283 59.2695L20.0154 64.6213C20.6205 64.8888 21.2255 65.1564 21.8306 65.3571L25.5283 59.2695Z" fill="#4D2465"/>
<path d="M55.8499 51.8453L57.5979 57.7322C60.3543 55.0564 62.6402 51.8453 64.321 48.3667L55.8499 51.8453Z" fill="#4D2465"/>
<path d="M52.489 16.791L56.7246 16.0551L57.3969 10.1013L52.489 16.791Z" fill="#4D2465"/>
<path d="M12.1497 52.2466L6.43506 53.6514C7.51075 55.1231 8.72091 56.4611 9.9983 57.7321L12.1497 52.2466Z" fill="#4D2465"/>
<path d="M26.6716 58.2661L27.075 63.3502L29.8987 62.1461L26.6716 58.2661Z" fill="#4D2465"/>
<path d="M53.9004 45.3555L55.4467 50.4396L63.985 48.232L53.9004 45.3555Z" fill="#4D2465"/>
<path d="M26.806 63.686L22.3015 65.4922C23.8478 66.0274 25.3941 66.4957 27.0749 66.8302L26.806 63.686Z" fill="#4D2465"/>
<path d="M33.1254 60.8746L27.1418 58.3994L30.1672 62.0787L33.1254 60.8746Z" fill="#4D2465"/>
<path d="M55.5139 50.6409L55.7828 51.6444L62.7076 48.8347L55.5139 50.6409Z" fill="#4D2465"/>
<path d="M44.8236 65.6937L33.4615 61.011L30.3689 62.282L34.6717 67.5C38.1677 67.4331 41.5965 66.7641 44.8236 65.6937Z" fill="#4D2465"/>
<path d="M55.6485 51.979L52.892 53.1162L51.8835 62.348C53.9005 61.0769 55.7157 59.6052 57.4637 57.9997L55.6485 51.979Z" fill="#4D2465"/>
<path d="M24.386 21.9416L32.6554 20.4029L29.4955 8.96362L24.386 21.9416Z" fill="#4D2465"/>
<path d="M56.9924 16.2559L56.3201 22.2766L65.1273 20.6711C64.3206 18.798 63.3793 16.9917 62.2364 15.3193L56.9924 16.2559Z" fill="#4D2465"/>
<path d="M43.0088 9.16382L45.2274 16.4555L45.8997 16.0542L45.0929 9.23072L43.0088 9.16382Z" fill="#4D2465"/>
<path d="M19.8815 49.903L15.4442 44.5513L12.6877 51.6423L19.8815 49.903Z" fill="#4D2465"/>
<path d="M46.1687 16.1899L46.4376 17.9292L52.1523 16.8588L57.1273 10.0354L46.1687 16.1899Z" fill="#4D2465"/>
<path d="M46.1688 15.9221L57.1275 9.76759L45.3621 9.23242L46.1688 15.9221Z" fill="#4D2465"/>
<path d="M16.7216 40.6056L12.2843 36.7256V38.5987H10.9397L15.3769 44.0173L16.7216 40.6056Z" fill="#4D2465"/>
<path d="M32.8571 20.3363L40.7904 18.9315L40.8576 18.8646L29.6973 8.76318L32.8571 20.3363Z" fill="#4D2465"/>
<path d="M49.6648 44.1531L49.9337 46.6951L53.1608 45.1565L49.6648 44.1531Z" fill="#4D2465"/>
<path d="M41.1936 3.1453L42.9416 8.89841L45.0258 8.9653L44.1518 1.80737L41.1936 3.1453Z" fill="#4D2465"/>
<path d="M53.8326 42.144L53.0259 42.3447L53.631 44.3516L53.8326 42.144Z" fill="#4D2465"/>
<path d="M55.111 30.6387L50.741 34.8532L52.8924 41.8773L53.9008 41.6097L55.111 30.6387Z" fill="#4D2465"/>
<path d="M53.5639 45.0218L52.7571 42.4128L49.53 43.2156L49.5973 43.8846L53.4967 45.0218H53.5639Z" fill="#4D2465"/>
<path d="M55.9842 22.6111L50.2695 23.6814C50.2695 23.8152 50.3368 24.0159 50.3368 24.1497C50.3368 24.2835 50.3368 24.4173 50.2695 24.4842L55.7152 25.0194L55.9842 22.6111Z" fill="#4D2465"/>
<path d="M55.1779 30.2369L49.4632 26.1562C49.1271 26.4238 48.7909 26.6245 48.3203 26.7583L48.9926 28.9659H50.0683V32.5114L50.6734 34.5852L55.1779 30.2369Z" fill="#4D2465"/>
<path d="M56.7242 16.324L52.3542 17.1267L48.9927 21.8095C49.5978 22.144 50.0684 22.746 50.2701 23.4819L56.1192 22.4116L56.7242 16.324Z" fill="#4D2465"/>
<path d="M55.7156 25.4878L50.2027 24.9526C50.1355 25.2202 50.001 25.4878 49.7993 25.7554L55.245 29.6354L55.7156 25.4878Z" fill="#4D2465"/>
<path d="M41.328 18.5972L44.9584 16.5903L42.7398 9.09792L30.2349 8.56274L41.328 18.5972Z" fill="#4D2465"/>
<path d="M50.3367 51.979L42.1345 54.0528L42.9413 56.8625L50.5384 53.7852L50.3367 51.979Z" fill="#4D2465"/>
<path d="M54.1019 42.077L53.833 44.8866L65.6657 39.2673L54.1019 42.077Z" fill="#4D2465"/>
<path d="M55.3793 30.3723L54.1692 41.544L66.8086 38.4668L55.3793 30.3723Z" fill="#4D2465"/>
<path d="M55.2448 50.708L53.0934 51.2432L52.959 52.7818L55.581 51.7115L55.2448 50.708Z" fill="#4D2465"/>
<path d="M53.1611 50.9762L55.1781 50.508L53.7662 45.6245L53.1611 50.9762Z" fill="#4D2465"/>
<path d="M65.1949 20.8708L60.4888 25.4198L66.8757 26.0219C66.4051 24.2826 65.8672 22.5433 65.1949 20.8708Z" fill="#4D2465"/>
<path d="M64.7244 20.9382L56.2533 22.5437L55.9844 25.0189L60.1527 25.4203L64.7244 20.9382Z" fill="#4D2465"/>
<path d="M55.9174 25.5537L55.4468 29.8351H55.514L59.6823 25.8882L55.9174 25.5537Z" fill="#4D2465"/>
<path d="M26.8064 63.4167L26.4703 58.3994L26.2686 58.6001L22.1675 65.2898L26.8064 63.4167Z" fill="#4D2465"/>
<path d="M20.2175 50.3074L13.0911 52.0467L25.9994 57.3984L20.2175 50.3074Z" fill="#4D2465"/>
<path d="M26.0665 48.8992H25.9993L26.6043 57.4619L29.8314 52.1771L26.0665 48.8992Z" fill="#4D2465"/>
<path d="M25.7978 48.9678L20.4866 50.2388L26.4029 57.4636L25.7978 48.9678Z" fill="#4D2465"/>
<path d="M37.563 59.0699L34.2687 56.1265L27.2095 57.8658L33.7309 60.6085L37.563 59.0699Z" fill="#4D2465"/>
<path d="M37.7646 59.2036L34.0669 60.7422L44.2188 64.9567L37.7646 59.2036Z" fill="#4D2465"/>
<path d="M31.2434 53.4488L30.0332 52.3784L26.8062 57.6632L26.8734 57.5963L31.2434 53.4488Z" fill="#4D2465"/>
<path d="M42.7396 57.197L38.0334 59.137L44.9582 65.2246L42.7396 57.197Z" fill="#4D2465"/>
</svg>
